<svg width="64" height="64" viewBox="0 0 64 64" fill="none" xmlns="http://www.w3.org/2000/svg">
<path d="M32 64C49.6731 64 64 49.6731 64 32C64 14.3269 49.6731 0 32 0C14.3269 0 0 14.3269 0 32C0 49.6731 14.3269 64 32 64Z" fill="#6688CC" fill-opacity="0.5"/>
<path d="M51.5 28.5H35.5V12.5C35.5 12.2 35.3 12 35 12H29C28.7 12 28.5 12.2 28.5 12.5V28.5H12.5C12.2 28.5 12 28.7 12 29V35C12 35.3 12.2 35.5 12.5 35.5H28.5V51.5C28.5 51.8 28.7 52 29 52H35C35.3 52 35.5 51.8 35.5 51.5V35.5H51.5C51.8 35.5 52 35.3 52 35V29C52 28.7 51.8 28.5 51.5 28.5Z" fill="white"/>
</svg>
