<svg width="224" height="73" viewBox="0 0 224 73" fill="none" xmlns="http://www.w3.org/2000/svg">
<path d="M85.0748 47.8419C82.7484 48.9492 80.549 49.5029 78.4767 49.5029C76.9021 49.5029 75.4951 49.1117 74.2557 48.3295C73.0163 47.5473 72.0208 46.4298 71.269 44.9771C70.5275 43.5244 70.1567 41.9702 70.1567 40.3143C70.1567 38.7194 70.5122 37.1905 71.2233 35.7276C71.9344 34.2546 72.9249 33.1117 74.1948 32.299C75.4646 31.4762 76.8817 31.0648 78.4462 31.0648C80.5186 31.0648 82.1795 31.8063 83.429 33.2895C84.6887 34.7625 85.3186 37.0432 85.3186 40.1314V40.7562H73.2805C73.2805 41.9651 73.5344 43.0673 74.0424 44.0629C74.5503 45.0584 75.2157 45.8102 76.0386 46.3181C76.8614 46.8159 77.796 47.0648 78.8424 47.0648C80.7217 47.0648 82.7992 46.44 85.0748 45.1905V47.8419ZM73.4633 38.5771H82.1643V38.1505C82.1643 36.7283 81.8138 35.5956 81.1129 34.7524C80.4119 33.9092 79.4824 33.4876 78.3243 33.4876C77.1459 33.4876 76.1249 33.9194 75.2614 34.7829C74.3979 35.6362 73.7986 36.901 73.4633 38.5771ZM88.7499 49V31.5524H91.2946V35.5448C92.0972 33.8483 92.8438 32.68 93.5346 32.04C94.2254 31.3898 94.9264 31.0648 95.6375 31.0648C96.4807 31.0648 97.1613 31.3949 97.6794 32.0552C98.1975 32.7156 98.4565 33.6552 98.4565 34.8743V35.819C98.7918 34.7524 99.2032 33.8889 99.6908 33.2286C100.178 32.5683 100.681 32.0451 101.199 31.659C101.717 31.2629 102.317 31.0648 102.997 31.0648C103.749 31.0648 104.389 31.3848 104.917 32.0248C105.446 32.6546 105.71 33.9194 105.71 35.819V49H103.165V37.0838C103.165 36.0984 103.135 35.4279 103.074 35.0724C103.013 34.7067 102.886 34.4324 102.693 34.2495C102.51 34.0667 102.307 33.9752 102.083 33.9752C101.545 33.9752 100.966 34.3917 100.346 35.2248C99.7264 36.0476 99.0965 37.414 98.4565 39.3238V49H96.0184V37.099C96.0184 35.5549 95.8661 34.6508 95.5613 34.3867C95.2565 34.1124 94.9873 33.9752 94.7537 33.9752C94.2153 33.9752 93.6413 34.4375 93.0318 35.3619C92.4223 36.2863 91.8432 37.4749 91.2946 38.9276V49H88.7499ZM124.09 47.8419C121.763 48.9492 119.564 49.5029 117.492 49.5029C115.917 49.5029 114.51 49.1117 113.271 48.3295C112.031 47.5473 111.036 46.4298 110.284 44.9771C109.542 43.5244 109.172 41.9702 109.172 40.3143C109.172 38.7194 109.527 37.1905 110.238 35.7276C110.949 34.2546 111.94 33.1117 113.21 32.299C114.48 31.4762 115.897 31.0648 117.461 31.0648C119.534 31.0648 121.195 31.8063 122.444 33.2895C123.704 34.7625 124.334 37.0432 124.334 40.1314V40.7562H112.295C112.295 41.9651 112.549 43.0673 113.057 44.0629C113.565 45.0584 114.231 45.8102 115.054 46.3181C115.876 46.8159 116.811 47.0648 117.857 47.0648C119.737 47.0648 121.814 46.44 124.09 45.1905V47.8419ZM112.478 38.5771H121.179V38.1505C121.179 36.7283 120.829 35.5956 120.128 34.7524C119.427 33.9092 118.497 33.4876 117.339 33.4876C116.161 33.4876 115.14 33.9194 114.276 34.7829C113.413 35.6362 112.814 36.901 112.478 38.5771ZM129.273 48.0857V44.9924C130.442 45.7543 131.676 46.2927 132.976 46.6076C134.277 46.9124 135.384 47.0648 136.298 47.0648C137.761 47.0648 138.812 46.8311 139.452 46.3638C140.103 45.8863 140.428 45.2921 140.428 44.581C140.428 44.1137 140.28 43.7124 139.986 43.3771C139.681 43.0419 138.929 42.6305 137.731 42.1429L136.725 41.7314L134.713 40.939C132.55 40.0959 131.183 39.3137 130.614 38.5924C130.046 37.8813 129.761 37.0178 129.761 36.0019C129.761 34.5594 130.315 33.3759 131.422 32.4514C132.529 31.527 134.332 31.0648 136.832 31.0648C138.691 31.0648 140.453 31.334 142.119 31.8724V34.5086C140.199 33.8279 138.396 33.4876 136.71 33.4876C135.48 33.4876 134.52 33.706 133.83 34.1429C133.139 34.5695 132.793 35.1029 132.793 35.7429C132.793 36.3727 133.093 36.8756 133.692 37.2514C134.292 37.6273 135.262 38.059 136.603 38.5467L138.569 39.2629C140.377 39.9232 141.647 40.6394 142.378 41.4114C143.099 42.1835 143.46 43.1435 143.46 44.2914C143.46 45.8051 142.881 47.0495 141.723 48.0248C140.565 49 138.706 49.4876 136.146 49.4876C133.921 49.4876 131.63 49.0203 129.273 48.0857ZM155.76 49.7314C155.059 49.7314 154.455 49.4825 153.947 48.9848C153.449 48.487 153.2 47.8876 153.2 47.1867C153.2 46.4756 153.454 45.8762 153.962 45.3886C154.47 44.8908 155.069 44.6419 155.76 44.6419C156.441 44.6419 157.035 44.8908 157.543 45.3886C158.051 45.8762 158.305 46.4756 158.305 47.1867C158.305 47.8876 158.051 48.487 157.543 48.9848C157.045 49.4825 156.451 49.7314 155.76 49.7314ZM168.288 48.0857V44.9924C169.457 45.7543 170.691 46.2927 171.991 46.6076C173.292 46.9124 174.399 47.0648 175.313 47.0648C176.776 47.0648 177.827 46.8311 178.467 46.3638C179.118 45.8863 179.443 45.2921 179.443 44.581C179.443 44.1137 179.295 43.7124 179.001 43.3771C178.696 43.0419 177.944 42.6305 176.746 42.1429L175.74 41.7314L173.728 40.939C171.565 40.0959 170.198 39.3137 169.629 38.5924C169.061 37.8813 168.776 37.0178 168.776 36.0019C168.776 34.5594 169.33 33.3759 170.437 32.4514C171.544 31.527 173.347 31.0648 175.847 31.0648C177.706 31.0648 179.468 31.334 181.134 31.8724V34.5086C179.214 33.8279 177.411 33.4876 175.725 33.4876C174.495 33.4876 173.535 33.706 172.845 34.1429C172.154 34.5695 171.808 35.1029 171.808 35.7429C171.808 36.3727 172.108 36.8756 172.707 37.2514C173.307 37.6273 174.277 38.059 175.618 38.5467L177.584 39.2629C179.392 39.9232 180.662 40.6394 181.393 41.4114C182.114 42.1835 182.475 43.1435 182.475 44.2914C182.475 45.8051 181.896 47.0495 180.738 48.0248C179.58 49 177.721 49.4876 175.161 49.4876C172.936 49.4876 170.645 49.0203 168.288 48.0857ZM187.598 49V31.5524H190.508V35.3619C191.341 34.021 192.342 32.9695 193.51 32.2076C194.689 31.4457 195.867 31.0648 197.045 31.0648C198.082 31.0648 199.021 31.339 199.865 31.8876C200.708 32.4362 201.297 33.1524 201.632 34.0362C201.978 34.92 202.15 36.6571 202.15 39.2476V49H199.24V38.8971C199.24 37.2108 199.158 36.1035 198.996 35.5752C198.833 35.0368 198.534 34.5949 198.097 34.2495C197.67 33.9041 197.203 33.7314 196.695 33.7314C195.669 33.7314 194.572 34.219 193.404 35.1943C192.235 36.1594 191.27 37.3683 190.508 38.821V49H187.598ZM209.787 35.4686C210.681 34.0057 211.748 32.9086 212.987 32.1771C214.237 31.4356 215.38 31.0648 216.416 31.0648C217.879 31.0648 219.189 31.6946 220.347 32.9543C221.516 34.214 222.1 36.1238 222.1 38.6838C222.1 40.7054 221.714 42.5137 220.942 44.1086C220.169 45.6933 219.133 46.9479 217.833 47.8724C216.543 48.7867 214.948 49.2438 213.048 49.2438C212.5 49.2438 211.667 49.1879 210.549 49.0762C210.376 49.0559 210.122 49.0305 209.787 49V55.781H206.892V31.5524H209.787V35.4686ZM209.787 38.9276V46.4095C210.844 46.6737 211.814 46.8057 212.698 46.8057C214.455 46.8057 215.933 46.12 217.132 44.7486C218.341 43.367 218.945 41.4775 218.945 39.08C218.945 37.3429 218.615 36.0375 217.955 35.1638C217.305 34.28 216.563 33.8381 215.73 33.8381C214.826 33.8381 213.825 34.3003 212.728 35.2248C211.641 36.139 210.661 37.3733 209.787 38.9276Z" fill="#6688CC"/>
<path d="M9.68845 0.729979C9.07967 0.820226 7.83985 1.1812 7.10486 1.48201C5.99867 1.93323 4.08326 2.99358 4.08326 3.16655C4.08326 3.20415 4.26886 3.41472 4.499 3.63281C4.72915 3.8509 4.87763 4.0389 4.83309 4.05394C4.66233 4.1141 4.76627 4.27955 5.27854 4.78341C5.91701 5.42263 6.31791 6.03177 6.93411 7.28766C7.91409 9.25798 8.61196 11.1155 9.98541 15.3945L10.9357 18.3349L9.65133 23.3284C4.67718 42.7533 1.93769 53.4697 1.64815 54.6804C0.601352 58.9971 0 62.6143 0 64.5395C0 65.6525 0.148482 66.2842 0.541959 66.8031C0.675593 66.9836 0.883468 67.307 1.00225 67.5251C1.23982 67.9612 1.52936 68.2545 2.02678 68.5478C3.14039 69.2171 5.29338 69.2547 7.98091 68.6606C8.93119 68.4501 11.0842 67.8409 11.1733 67.7582C11.2178 67.7131 11.0842 67.5401 10.8021 67.2769C10.3863 66.9009 10.3715 66.8633 10.5274 66.8182C10.7724 66.7505 10.7278 66.6076 10.3863 66.3745C9.88148 66.0135 9.30982 65.3291 9.13907 64.8779C8.87922 64.1785 8.81241 63.246 8.9015 61.8397C9.0871 59.0723 9.25043 58.1698 12.2423 42.9864L14.7517 30.2771L15.0264 31.1796C15.6129 33.1123 16.5854 36.0452 17.0086 37.1883C19.3843 43.588 22.6212 49.2132 25.6206 52.1611C27.1945 53.7028 28.4788 54.4924 30.0379 54.876C30.7061 55.0414 32.1389 55.0414 32.8739 54.876C34.6112 54.4924 36.3484 53.575 38.2341 52.0483C39.2883 51.191 41.4859 48.95 42.6069 47.5888C47.4029 41.7456 51.5307 34.4283 54.7973 25.953C55.0794 25.231 55.3095 24.7272 55.3095 24.8325C55.3095 24.9453 54.6562 31.3074 53.8618 38.9706C51.8573 58.2225 51.9316 57.3426 51.9316 61.7495C51.9316 64.4267 51.9539 65.096 52.0652 65.8856C52.3325 67.7808 52.8002 69.2547 53.4461 70.27C53.6391 70.5708 53.8841 70.9694 53.9955 71.1649C54.2405 71.5935 54.8047 72.1876 55.1982 72.4433C56.9874 73.5789 59.8085 72.9697 63.3127 70.6836C63.6839 70.4354 63.9957 70.1872 63.9957 70.1421C63.9957 70.0895 63.825 69.9015 63.6171 69.721C63.2756 69.4277 63.2533 69.3901 63.3573 69.2773C63.528 69.0818 63.5058 68.999 63.2236 68.8261C62.897 68.6155 62.3624 68.0289 62.1249 67.6153C61.7165 66.9009 61.3082 65.2389 61.0855 63.4416C60.9593 62.3662 60.9593 57.9668 61.0855 56.4853C61.2414 54.7481 64.0551 27.8857 64.263 26.1786C64.3669 25.3288 64.6639 23.0953 64.9238 21.2152C65.4212 17.6656 65.7924 14.7478 65.926 13.4016C66.0968 11.6494 65.9706 10.3183 65.5622 9.48358C65.0945 8.53603 64.6416 7.77648 64.3892 7.51327C63.3276 6.41531 61.4196 6.24986 58.3905 7.00189C57.4625 7.23502 55.1908 7.92689 55.1165 8.00209C55.0942 8.02465 55.0274 8.40818 54.9755 8.8594C54.3221 14.2214 51.9539 20.4181 47.6404 28.0887C44.9752 32.834 41.9313 37.444 39.5705 40.3167C39.1473 40.8356 38.3084 41.7456 37.7144 42.3472C36.1331 43.949 34.9675 44.7913 33.7128 45.2275C33.156 45.423 33.0075 45.4455 32.4136 45.4155C31.7974 45.3854 31.6861 45.3553 31.1812 45.0921C30.7803 44.874 30.4314 44.5957 29.9562 44.1144C28.2858 42.4299 26.8678 39.8505 24.9079 34.9021C24.1209 32.9092 23.8388 32.1346 22.5396 28.4347C21.7823 26.2613 21.5744 25.5995 19.5996 18.9591C17.1942 10.9049 15.7688 6.67852 14.7814 4.6706C13.6455 2.37692 12.8957 1.43689 11.8043 0.917986C11.4628 0.760064 11.2772 0.72246 10.6536 0.71494C10.2453 0.707421 9.81466 0.71494 9.68845 0.729979Z" fill="#6688CC"/>
</svg>
