<svg width="32" height="30" viewBox="0 0 32 30" fill="none" xmlns="http://www.w3.org/2000/svg">
<path d="M5.52636 26.2807L3.52719 24.4348C3.40185 24.3191 3.33252 24.1624 3.33252 23.9991V3.69181C3.33252 3.35298 3.63119 3.07651 3.9992 3.07651H28.0025C28.3697 3.07651 28.6692 3.35298 28.6692 3.69181V25.845C28.6692 26.1847 28.3697 26.4603 28.0025 26.4603H5.99837C5.82148 26.4603 5.6517 26.3955 5.52636 26.2807Z" fill="#205DAF"/>
<path d="M3.99902 3.6918V23.9991L5.99819 25.845H28.0024V3.6918H3.99902Z" fill="url(#paint0_linear)"/>
<path d="M7.33154 3.6951L7.33421 15.0527C7.33421 15.4974 7.84445 15.9994 8.29601 15.9994H23.7036C24.156 15.9994 24.6662 15.4974 24.6662 15.0527L24.6671 3.6951H7.33154Z" fill="url(#paint1_linear)"/>
<path d="M10.0005 25.8442V19.3778C10.0005 18.9791 10.3854 18.459 10.7996 18.459L22.3831 18.4582C22.8284 18.4582 23.3342 18.9447 23.3342 19.3778V25.8442H10.0005ZM15.334 25.2265V20.3041H12.6672V25.2265H15.334Z" fill="#205DAF"/>
<path d="M9.3335 25.8467V19.3803C9.3335 18.9816 9.7184 18.4615 10.1326 18.4615L21.7161 18.4606C22.1614 18.4606 22.6672 18.9471 22.6672 19.3803V25.8467H9.3335ZM14.667 25.2289V20.3065H12.0002V25.2289H14.667Z" fill="url(#paint2_linear)"/>
<path d="M7.3335 3.69263V5.53934H24.6682V3.69263H7.3335Z" fill="url(#paint3_linear)"/>
<path d="M4.66602 4.30875V5.53606H5.99939V4.30875H4.66602Z" fill="#0C3670"/>
<path d="M26.0005 4.31204V5.53936H27.3339V4.31204H26.0005Z" fill="#0C3670"/>
<path d="M3.99756 3.6951V23.9991L4.66691 24.6136V3.6951H3.99756Z" fill="#73AEFF" fill-opacity="0.4353"/>
<path d="M9.33203 25.8442V26.4603H22.6666V25.8442H9.33203Z" fill="#6F8199"/>
<path d="M4.66699 5.54016V6.15464H5.99947V5.54016H4.66699Z" fill="#DDEBFE" fill-opacity="0.2275"/>
<path d="M26.0015 5.54016V6.15464H27.3339V5.54016H26.0015Z" fill="#DDEBFE" fill-opacity="0.2275"/>
<defs>
<linearGradient id="paint0_linear" x1="16.0007" y1="1.84837" x2="16.0007" y2="23.0762" gradientUnits="userSpaceOnUse">
<stop stop-color="#73AEFF"/>
<stop offset="1" stop-color="#478DEC"/>
</linearGradient>
<linearGradient id="paint1_linear" x1="15.9993" y1="16.947" x2="15.9993" y2="5.58694" gradientUnits="userSpaceOnUse">
<stop stop-color="#D6E6F6"/>
<stop offset="1" stop-color="white"/>
</linearGradient>
<linearGradient id="paint2_linear" x1="12.3282" y1="19.2234" x2="21.5849" y2="27.8214" gradientUnits="userSpaceOnUse">
<stop stop-color="white"/>
<stop offset="0.451" stop-color="#BEC6D1"/>
<stop offset="1" stop-color="white"/>
</linearGradient>
<linearGradient id="paint3_linear" x1="7.81424" y1="-2.24018" x2="22.652" y2="11.3053" gradientUnits="userSpaceOnUse">
<stop stop-color="#478DEC"/>
<stop offset="1" stop-color="#205DAF"/>
</linearGradient>
</defs>
</svg>
