<svg width="34" height="30" viewBox="0 0 34 30" fill="none" xmlns="http://www.w3.org/2000/svg">
<path d="M9.06448 16.113C10.3335 16.113 11.5139 15.7463 12.4774 15.0527C13.9103 14.0218 15.1594 12.2825 15.9042 10.2804C16.6849 8.18224 16.8367 6.05043 16.3316 4.27772C16.3303 4.27306 16.3289 4.26828 16.3275 4.26362C15.542 1.63378 12.8089 0 9.19435 0C7.82821 0 6.39881 0.246426 5.06087 0.71263C2.71161 1.53056 0.979124 3.2025 0.30776 5.29964C-0.362699 7.39342 0.0737524 9.7538 1.50509 11.7755C1.50833 11.7802 1.51169 11.7848 1.51505 11.7894C3.46214 14.4561 6.35483 16.1128 9.06396 16.113C9.06422 16.113 9.06435 16.113 9.06448 16.113ZM11.3603 6.23295C12.1938 6.20307 12.8844 6.8443 12.9173 7.67115C12.95 8.49684 12.305 9.19537 11.4793 9.2281C11.4593 9.22887 11.4393 9.22926 11.4196 9.22926C10.6118 9.22926 9.9542 8.59709 9.92212 7.79003C9.89029 6.96344 10.5355 6.26568 11.3603 6.23295Z" fill="#554422"/>
<path d="M30.3629 9.22926C30.3827 9.22926 30.4026 9.22887 30.4225 9.22809C30.8225 9.21218 31.1924 9.04156 31.464 8.74753C31.7358 8.45337 31.8767 8.07112 31.8607 7.67102C31.8279 6.84404 31.1369 6.2001 30.3035 6.23282C29.9033 6.24873 29.5333 6.41949 29.2617 6.7139C28.9903 7.00793 28.8496 7.39005 28.8655 7.7899C28.8977 8.59709 29.5553 9.22926 30.3629 9.22926Z" fill="#554422"/>
<path d="M32.0767 25.0415C24.7074 25.0415 22.7299 20.9488 22.2192 19.1789C24.2928 18.3907 25.6897 15.8905 25.6897 14.1064C25.6897 11.8323 23.5373 9.98224 20.8916 9.98224C18.2458 9.98224 16.0935 11.8323 16.0935 14.1064C16.0935 15.8905 17.4904 18.3907 19.564 19.1789C19.0534 20.9489 17.0759 25.0415 9.70645 25.0415C9.06342 25.0415 8.54224 25.5627 8.54224 26.2057C8.54224 26.8488 9.06342 27.3699 9.70645 27.3699C15.5751 27.3699 18.6181 25.0306 20.1373 23.0683C20.4313 22.6885 20.68 22.3081 20.8916 21.9381C21.1031 22.3081 21.3517 22.6885 21.6457 23.0683C24.3982 26.6237 28.8374 27.3699 32.0766 27.3699C32.7196 27.3699 33.2408 26.8488 33.2408 26.2057C33.2408 25.5627 32.7196 25.0415 32.0767 25.0415Z" fill="#554422"/>
<path d="M21.8654 26.9103H19.9174C19.2744 26.9103 18.7532 27.4315 18.7532 28.0746C18.7532 28.7176 19.2744 29.2388 19.9174 29.2388H21.8654C22.5084 29.2388 23.0296 28.7176 23.0296 28.0746C23.0296 27.4315 22.5084 26.9103 21.8654 26.9103Z" fill="#554422"/>
</svg>
