<svg width="32" height="32" viewBox="0 0 32 32" fill="none" xmlns="http://www.w3.org/2000/svg">
<path d="M13.0613 29.5999C13.0204 29.4667 13.0063 29.3534 13.0202 29.2617C13.034 29.1706 12.9865 29.0951 12.8774 29.037C12.7684 28.9788 12.714 28.9327 12.714 28.8998C12.714 28.8665 12.6359 28.8414 12.4793 28.8249C12.3228 28.8082 12.2446 28.7997 12.2446 28.7997H11.9794H11.755H5.87742C4.97948 28.7997 4.21071 28.4084 3.57117 27.6245C2.93178 26.8411 2.61212 25.8996 2.61212 24.7998V7.19955C2.61212 6.09957 2.9317 5.15816 3.57117 4.37481C4.21071 3.59137 4.97948 3.19952 5.87742 3.19952H12.408C12.5849 3.19952 12.724 3.14575 12.8263 3.03717C12.9281 2.92886 12.996 2.76625 13.0302 2.54961C13.0642 2.33298 13.0847 2.13736 13.0916 1.96232C13.0983 1.78745 13.095 1.56644 13.0813 1.29981C13.0678 1.03326 13.061 0.866626 13.061 0.799639C13.061 0.583004 12.9963 0.395879 12.8671 0.237212C12.7378 0.0792458 12.5849 0 12.408 0H5.87742C4.25853 0 2.87409 0.704193 1.72433 2.11249C0.574847 3.52079 0 5.21648 0 7.19981V24.7997C0 26.7829 0.574847 28.479 1.72433 29.8868C2.87409 31.2958 4.25853 32 5.87742 32H12.4082C12.5852 32 12.7243 31.9455 12.8265 31.8377C12.9284 31.7292 12.9963 31.5667 13.0305 31.3498C13.0645 31.1335 13.085 30.9369 13.0919 30.7625C13.0986 30.5875 13.0953 30.3669 13.0816 30.1003C13.0679 29.8334 13.0613 29.6668 13.0613 29.5999Z" fill="#DDCCDD"/>
<path d="M31.6123 14.8749L20.5103 1.27453C20.252 0.958243 19.9458 0.799576 19.592 0.799576C19.2383 0.799576 18.932 0.958243 18.6734 1.27453C18.4149 1.59125 18.2857 1.96663 18.2857 2.39973V9.5998H9.14291C8.78893 9.5998 8.48293 9.75847 8.22438 10.0748C7.96584 10.3915 7.83667 10.7666 7.83667 11.2V20.8002C7.83667 21.2334 7.96584 21.6086 8.22438 21.9251C8.48321 22.2412 8.78915 22.4003 9.14291 22.4003H18.2858V29.6003C18.2858 30.0333 18.4149 30.4088 18.6735 30.7253C18.932 31.042 19.2383 31.2006 19.5921 31.2006C19.9458 31.2006 20.252 31.042 20.5104 30.7253L31.6123 17.1254C31.8708 16.8085 32 16.4339 32 16.0004C32 15.5671 31.8708 15.1917 31.6123 14.8749Z" fill="#DDCCDD"/>
</svg>
