<svg width="32" height="32" viewBox="0 0 32 32" fill="none" xmlns="http://www.w3.org/2000/svg">
<g clip-path="url(#clip0)">
<path fill-rule="evenodd" clip-rule="evenodd" d="M28.8671 22.9072C28.3164 22.4787 27.6006 21.7197 26.9324 21.553C26.8086 21.5219 26.727 21.4774 26.6418 21.456C26.518 21.425 26.4377 21.3808 26.3519 21.3597C25.8719 21.2394 25.6089 21.3107 25.0943 21.2627C24.8793 21.2422 24.639 21.1581 24.4178 21.1661C24.133 21.1757 23.8662 21.3491 23.5458 21.2627C23.1439 21.5046 22.6463 21.6528 22.2895 21.9395C22.0722 22.0454 21.8044 22.0998 21.6127 22.2301C21.302 22.2752 21.271 22.5978 20.935 22.617C20.2348 22.0262 19.3807 21.5917 18.71 20.9731C18.2575 20.7802 17.8706 20.5219 17.5487 20.199C17.0969 20.0067 16.7097 19.7482 16.3884 19.425C15.5122 19.0112 14.8514 18.3814 13.9698 17.9734C13.6764 17.6218 13.1631 17.4909 12.8092 17.1997C12.4425 16.9222 11.8969 16.8221 11.6486 16.4259C11.7452 16.1677 11.8476 15.9162 11.8422 15.5555C12.0409 15.1094 12.6313 15.0557 12.9055 14.6854C13.3958 14.4976 13.6822 14.1069 14.1631 13.9114C14.445 13.5478 14.959 13.4166 15.2274 13.0403C15.7094 12.8451 15.9954 12.4547 16.4847 12.2669C17.1807 11.6413 18.0073 11.1446 18.8066 10.6224C19.1692 10.3082 19.6044 10.0659 19.967 9.75168C20.5225 9.6288 20.8978 9.328 21.1282 8.88128C21.4265 9.35584 21.9465 9.6112 22.3855 9.94528C23.055 10.1139 23.7298 10.2784 24.5138 10.3322C25.3298 10.2227 26.0438 10.1437 26.6415 9.84832C27.2415 9.55296 27.6729 9.10784 28.0927 8.68736C28.5129 8.26784 28.9606 7.8192 29.2534 7.23648C29.5647 6.61792 29.671 5.92416 29.7372 5.1088C29.6959 4.63424 29.6076 4.20608 29.5446 3.75424C28.1804 1.49056 25.9945 -0.413121 22.1922 0.0777589C22.11 0.221119 21.949 0.285759 21.7094 0.271039C20.6188 1.27744 19.9615 2.71648 19.7746 4.62432C19.0716 5.11392 18.3167 5.55296 17.6457 6.07584C16.8402 6.49504 16.2041 7.08352 15.325 7.42976C15.0543 7.77216 14.5439 7.87456 14.2607 8.2032C13.7874 8.34208 13.5404 8.70816 13.1001 8.88064C12.7906 9.184 12.3452 9.35136 12.0358 9.6544C11.5961 9.82656 11.3487 10.1923 10.8748 10.3315C10.4777 9.92384 9.90584 9.68832 9.42328 9.36416C8.39992 9.1632 7.3292 9.00928 6.03864 9.07392C6.0204 9.2176 5.80504 9.1632 5.65144 9.17152C5.5692 9.31456 5.40888 9.37856 5.16824 9.36448C4.85592 9.60064 4.56568 9.85888 4.20024 10.0416C3.11608 11.1818 2.28824 12.5782 1.97624 14.4918C1.95288 15.6096 2.04664 16.6131 2.16888 17.5866C2.85752 19.7027 4.41592 20.9504 7.29592 20.8755C8.14936 20.7613 8.85528 20.5002 9.4236 20.1014C9.33656 20.7046 9.6012 20.9558 9.90808 21.1661C10.4226 21.3786 10.631 21.08 11.069 20.9731C11.4124 21.2099 11.6422 21.56 12.0361 21.7469C12.3228 22.04 12.5951 22.3485 13.0034 22.5206C13.182 22.9229 13.6831 23.0019 13.8738 23.3904C14.3388 23.5066 14.4598 23.9654 14.9375 24.0675C15.174 24.4122 15.5766 24.5901 15.9052 24.8416C16.237 25.0906 16.5401 25.368 16.9689 25.519C17.2354 25.8333 17.6658 25.9834 18.0329 26.1962C18.4066 26.4352 18.8975 26.5568 19.2914 26.7763V29.1946C19.5036 29.5302 19.6175 29.9638 19.8713 30.2586C20.0975 30.6131 20.4082 30.8829 20.7417 31.129C21.3161 31.6835 22.2668 31.8621 23.2575 32H24.9986C27.6809 31.4902 29.5407 30.1578 30.0287 27.4538V25.519C29.8767 24.4122 29.3426 23.6886 28.8671 22.9072ZM24.9977 8.2032C25.0562 7.97152 25.1366 7.76224 25.0943 7.42976C25.4354 7.44352 25.3702 7.86336 25.4812 8.10656C25.2482 8.0672 25.2713 8.2832 24.9977 8.2032ZM24.1273 2.78624C24.3174 2.58432 24.2006 2.144 24.1273 1.91584C25.894 1.95424 26.6217 3.03296 27.6092 3.85088C27.7052 4.1744 27.9164 4.38208 27.9964 4.72128C28.0646 5.95072 27.4057 6.4528 26.9318 7.13888C26.4902 7.34304 26.2828 7.77984 25.7705 7.91328C25.5356 7.34304 25.3599 6.71264 25.094 6.17184C24.7993 6.16768 24.7174 6.37664 24.5138 6.46272C24.5234 6.5792 24.373 6.52192 24.5138 6.46272C24.6697 5.9792 24.6178 5.39616 24.3199 5.10848C24.0249 5.0384 24.0358 5.2752 23.7398 5.20512C23.9298 4.52448 24.2204 3.94432 24.6098 3.46368C24.5689 3.11808 24.3673 2.93248 24.1273 2.78624ZM23.9334 7.71968C24.1231 7.76384 24.1074 8.3984 23.7401 8.2032C23.7817 8.0192 23.9487 7.96064 23.9334 7.71968ZM11.8422 11.7821C12.1478 11.7984 12.165 11.5254 12.5186 11.5891C12.7212 11.6448 12.7945 11.8291 13.0994 11.7821C13.654 11.6278 13.9414 11.2058 13.9698 10.5245C14.9641 9.9712 15.7782 9.23776 16.8722 8.78368C17.2198 8.35712 17.8956 8.26016 18.2262 7.81632C18.7398 7.58816 19.2127 7.32 19.5798 6.9456H19.8703C19.8975 7.40128 20.2655 7.51712 20.3535 7.91264H19.5798C18.821 8.2496 18.2223 8.74688 17.5481 9.17056C16.9673 9.65248 16.2479 9.99744 15.71 10.5238C15.3286 10.6909 15.0159 10.9251 14.7433 11.2016C14.3081 11.2829 14.2108 11.7005 13.7762 11.7814C13.5878 12.1408 13.1177 12.2198 12.9049 12.5555C12.5142 12.6803 12.3721 13.0547 11.9382 13.1363C12.0143 12.5773 11.7983 12.3101 11.8422 11.7821ZM5.07096 18.9408C5.1212 18.7981 5.214 18.697 5.2636 18.5542C5.48952 18.6198 5.52312 18.8755 5.74776 18.9408C5.63288 19.2013 5.24344 18.9405 5.07096 18.9408ZM6.52152 19.0378C6.654 18.7834 6.9292 18.671 7.00472 18.3606C7.16568 18.4582 7.11 18.7712 7.19928 18.9408C7.07384 19.0742 6.77848 19.0368 6.52152 19.0378ZM10.1007 14.2973C10.1177 14.6374 9.77432 14.6157 9.71352 14.8778C9.68344 15.2634 9.70872 15.5926 9.90744 15.7485C9.60856 16.8682 9.15096 17.8298 8.35992 18.457C7.93016 17.6934 8.05496 16.3757 7.39192 15.8458C7.01176 16.0134 6.5244 16.0742 6.32888 16.4256C6.16984 16.3594 6.2956 16.2445 6.32888 16.1357C6.358 16.0381 6.37912 15.8982 6.4252 15.7488C6.44152 15.6973 6.61048 15.496 6.61816 15.4589C6.64536 15.3357 6.59736 15.1962 6.61816 15.072C6.51096 14.7594 6.31064 14.5411 5.84408 14.5882C5.87704 14.2339 6.22776 14.1978 6.13432 13.7181C6.04376 13.3395 5.64632 13.6352 5.36088 13.6208C5.62168 13.0758 6.32664 12.9744 6.52152 12.3635C6.5276 11.7763 6.11064 11.6128 5.6508 11.4931C5.862 11.2531 6.21368 11.1523 6.42488 10.9126C7.6556 10.8419 8.65656 11.0019 9.42296 11.3965C9.51064 11.5674 9.6396 11.6957 9.81048 11.783C9.85336 12.0304 9.94616 12.2282 10.1004 12.3638V14.2973H10.1007ZM13.0998 20.8755C12.5167 20.6576 13.0502 19.9626 13.0028 19.425C13.2057 19.5443 13.3794 19.6925 13.583 19.8118C13.4892 20.2333 13.2476 20.5078 13.0998 20.8755ZM14.0662 21.553C14.2047 21.2394 14.3103 20.8928 14.357 20.4886C14.7164 20.7421 14.5452 21.5258 14.7436 21.9392C14.4262 21.9024 14.3167 21.6566 14.0662 21.553ZM19.8706 24.5514C19.6732 24.7578 19.487 24.5245 19.2908 24.4544C19.1401 24.3146 18.8383 24.3258 18.71 24.1645C18.3058 24.1862 18.2527 24.007 17.9362 24.1645C17.5577 23.7696 16.9686 23.5834 16.582 23.1974C15.9916 23.0138 15.7314 22.5005 15.1305 22.3264C15.3132 21.8019 15.0924 21.3293 15.0338 20.7792C15.1164 20.7606 15.1247 20.8163 15.1305 20.8755C16.0361 21.4211 16.9007 22.0077 17.7426 22.617C18.1548 22.9133 18.6188 23.159 19.0006 23.487C19.3455 23.7786 20.1954 23.8896 19.8706 24.5514ZM21.4194 28.7107C21.0815 28.6614 21.277 28.0794 21.2246 27.7437C21.6041 27.9763 21.6428 28.3024 21.4194 28.7107ZM27.9967 27.9373C27.9302 28.0502 27.8982 28.0531 27.8025 28.1306C27.7708 28.1571 27.8284 28.2899 27.8025 28.3245C27.6303 28.552 27.3014 28.807 27.029 29.001C26.7225 29.2202 26.357 29.4592 25.9647 29.4851C25.7586 29.1424 25.645 28.7091 25.3849 28.4214C25.5158 28.136 25.5055 27.8224 25.2882 27.6477C24.2527 27.6349 23.7622 29.0778 24.3206 29.7754C24.6895 29.9418 24.9254 29.4886 24.998 29.6794C25.0108 30.0794 24.3241 29.7795 24.031 29.8726C23.647 29.8368 23.1039 29.9606 22.8703 29.7754C22.837 28.8723 23.2825 28.4464 23.4502 27.7443C23.6342 27.4758 23.7145 27.1056 23.9337 26.8736C24.1145 26.6029 24.365 26.4013 24.4182 26.0029C24.4249 25.673 24.0591 25.7165 23.7404 25.713C23.8895 25.0883 24.3961 24.8202 24.6105 24.2618C24.5033 23.8134 23.8281 23.6637 23.3535 23.8749C23.3625 23.992 23.2124 23.9341 23.3535 23.8749C23.6998 23.5043 24.1366 23.2618 24.7068 23.1978C25.4009 23.1206 26.5615 23.2714 26.7388 23.4874C26.7622 23.5168 26.8972 23.4704 26.9324 23.4874C27.0479 23.5443 27.1436 23.745 27.3193 23.6816C27.7343 24.1056 28.0751 24.6016 28.3836 25.1318C28.4636 26.3414 28.3337 27.3584 27.9967 27.9373Z" fill="#554422"/>
</g>
<defs>
<clipPath id="clip0">
<rect width="32" height="32" fill="white"/>
</clipPath>
</defs>
</svg>
