<svg width="32" height="32" viewBox="0 0 32 32" fill="none" xmlns="http://www.w3.org/2000/svg">
<g clip-path="url(#clip0)">
<path d="M16 31C24.8366 31 32 24.2843 32 16C32 7.71573 24.8366 1 16 1C7.16344 1 0 7.71573 0 16C0 24.2843 7.16344 31 16 31Z" fill="#C2D5D8"/>
<path d="M19.5939 24.3907H12.7344V30.047H19.5939V24.3907Z" fill="#CCCCCC"/>
<path d="M19.0024 22.606L15.9881 22.25L12.9739 22.606L11.6094 23.4688L14.0859 26.9688L15.9999 25L17.8906 26.9688L20.3671 23.4688L19.0024 22.606Z" fill="#F5F5F5"/>
<path d="M19.0928 22.8907H19.094L18.2383 20.2292L15.9883 20.0627L13.7383 20.2292L12.8825 22.8907H12.8838C12.871 22.9272 12.8633 22.9645 12.8633 23.0015C12.8633 23.553 14.2625 23.9997 15.9883 23.9997C17.714 23.9997 19.1133 23.553 19.1133 23.0015C19.1133 22.9642 19.1055 22.9272 19.0928 22.8907Z" fill="#E6CBC3"/>
<path d="M19.0928 22.8907H19.094L18.2383 20.2292L15.9883 20.0627L15.5508 20.095L17.3633 20.2292L18.219 22.8907H18.2178C18.2305 22.9272 18.2383 22.9645 18.2383 23.0015C18.2383 23.5055 17.0688 23.9207 15.5508 23.989C15.694 23.9952 15.8393 23.9997 15.9883 23.9997C17.714 23.9997 19.1133 23.553 19.1133 23.0015C19.1133 22.9642 19.1055 22.9272 19.0928 22.8907Z" fill="#D9BFB8"/>
<path d="M22.4883 9.5L22.5 7.5C22.5 5.47175 20 3.25 15.9883 3.25C12 3.25 9.50003 5.47175 9.50003 7.5L9.48828 9.5C9.48828 9.5 8.48828 9.57375 8.48828 10.25V13.017C8.48828 13.6933 8.73828 14.25 9.48828 14.25C9.48828 17.6305 12.4938 21.5 15.9883 21.5C19.4825 21.5 22.4883 17.6305 22.4883 14.25C23.2383 14.25 23.4883 13.6933 23.4883 13.017V10.25C23.4883 9.57375 22.4883 9.5 22.4883 9.5Z" fill="#FFE1D9"/>
<path d="M15.9883 3.25C15.8603 3.25 15.7365 3.25175 15.6133 3.254C20.3663 3.333 21.7383 4.9225 21.7383 6.8995V9.5V14.25C21.7383 17.5087 18.9445 21.2207 15.6133 21.484C15.7378 21.4937 15.8625 21.5 15.9883 21.5C19.4825 21.5 22.4883 17.6305 22.4883 14.25V9.5V8.25C22.4883 6.22175 21.0458 3.25 15.9883 3.25Z" fill="#F2D6CE"/>
<path d="M11.6095 23.4688L16 29.75V33L3.8125 33.0312L5.3125 25.3438L11.6095 23.4688Z" fill="#1A1A1A"/>
<path d="M12.9857 22.6685L9.82422 24.4533L12.1992 25.0625L11.0532 27.2813L16 32.25V29.75L12.9857 22.6685Z" fill="#242424"/>
<path d="M20.3673 23.4688L16 29.75V33L28.164 33.0312L26.664 25.3438L20.3673 23.4688Z" fill="#1A1A1A"/>
<path d="M19.0025 22.606L22.164 24.3908L19.789 25L20.935 27.2188L16 32.25V29.75L19.0025 22.606Z" fill="#242424"/>
<path d="M22.6566 9.0405L22.2499 8.75L21.3526 10.7557C21.1634 10.5327 20.8119 10.3568 20.4219 10.3205C19.3041 10.2153 18.7136 10.1795 17.5956 10.1458C17.0194 10.1285 16.4994 10.5025 16.4994 10.9605C16.4994 11.1255 16.4994 11.2648 16.4994 11.3953H15.4994C15.4994 11.2648 15.4994 11.1255 15.4994 10.9605C15.4994 10.5025 14.9676 10.1285 14.3914 10.1458C13.2734 10.1795 12.6884 10.2153 11.5714 10.3205C11.1644 10.3588 10.8016 10.5487 10.6211 10.7855L9.70314 8.75L9.29639 9.0405L10.4996 11.475C10.4996 11.7095 10.4996 11.9095 10.4996 12.21C10.4996 12.5775 10.9644 12.9335 11.5409 12.9875C12.6584 13.0925 13.2769 13.1285 14.3946 13.1623C14.9709 13.1793 15.4996 12.8053 15.4996 12.3473C15.4996 12.175 15.4996 12.03 15.4996 11.8943H16.4996C16.4996 12.03 16.4996 12.1745 16.4996 12.3473C16.4996 12.8053 17.0226 13.1793 17.5986 13.1623C18.7166 13.1285 19.3294 13.0925 20.4469 12.9875C21.0236 12.9333 21.4999 12.5768 21.4999 12.21C21.4999 11.8818 21.4999 11.6743 21.4999 11.4095L22.6566 9.0405Z" fill="#242424"/>
<path d="M22.5 7.5C22.5 5.29675 21.1405 -1 19.5 -1C17.8595 -1 16.6105 0.5 16 0.5C15.3895 0.5 14.1405 -1 12.5 -1C10.8595 -1 9.5 5.297 9.5 7.5C9.22275 7.5 8.60425 8.14575 8 8.75C9.22925 9.97925 14.7828 10 16 10C17.2172 10 22.7708 9.97925 24 8.75C23.3958 8.14575 22.7773 7.5 22.5 7.5Z" fill="#242424"/>
<path d="M16.0002 6.00001C15.1055 6.00001 11.869 5.98801 9.72771 5.49426C9.58696 6.22801 9.50696 6.90926 9.50146 7.43876C11.633 7.98726 15.0732 8.00001 16.0002 8.00001C16.9272 8.00001 20.3675 7.98726 22.499 7.43876C22.4935 6.90926 22.4132 6.22751 22.2727 5.49426C20.1315 5.98801 16.895 6.00001 16.0002 6.00001Z" fill="#F5F5F5"/>
</g>
<defs>
<clipPath id="clip0">
<rect width="32" height="32" fill="white"/>
</clipPath>
</defs>
</svg>
