<svg width="32" height="32" viewBox="0 0 32 32" fill="none" xmlns="http://www.w3.org/2000/svg">
<path d="M23.9971 12C23.9971 12 23.4984 11.3333 21.9971 11.3333C20.4971 11.3333 19.9971 12 19.9971 12V7.33264H23.9971V12Z" fill="#BF360C"/>
<path d="M7.99818 18.6667C7.99818 18.6667 7.02618 21.3333 4.66485 21.3333C2.30351 21.3333 2.52618 17.472 3.99818 16" stroke="#E64A19" stroke-width="2"/>
<path d="M3.72205 14.3906C4.24205 13.87 5.99805 13.3333 5.99805 13.3333C5.99805 13.3333 6.12805 15.7553 5.60739 16.276C5.08672 16.7966 4.24272 16.7966 3.72205 16.276C3.20072 15.7553 3.20072 14.9113 3.72205 14.3906Z" fill="#E64A19"/>
<path d="M18.6641 14H15.3307C15.3307 14 13.3514 10.4873 13.1327 10.0753C13.1434 9.92668 11.6641 9.52801 11.2401 9.50001C10.4894 9.45068 11.0587 11.2687 11.3954 11.754L13.9161 15.4833C13.9961 15.614 14.4554 16.0007 14.8527 16H18.6627C19.3294 16 19.9961 15.7647 19.9961 15.0007C19.9961 14.2367 19.3307 14 18.6641 14Z" fill="#D84315"/>
<path d="M11.665 8H8.999V9.99933C8.999 9.99933 8.91567 11.3333 10.3043 11.3333C11.6937 11.3333 11.665 9.99933 11.665 9.99933V8Z" fill="#D84315"/>
<path d="M9.33105 30.6666L8.33105 30L7.33105 30.6666V19.3333L9.99772 20L9.33105 30.6666Z" fill="#FF5722"/>
<path d="M11.6645 9.38265V9.99931C11.6645 9.99931 11.6932 11.3333 10.3038 11.3333C8.91517 11.3333 8.9985 9.99931 8.9985 9.99931V9.36331C8.97917 9.36398 8.9565 9.36531 8.93784 9.36665C8.32517 9.09665 4.66717 8.00065 4.66717 8.00065L4.6705 4.66731C4.67117 4.00131 4.43584 3.33398 3.67184 3.33331C2.90784 3.33265 2.67184 3.99865 2.6705 4.66531L2.6665 8.47598C2.66584 8.87331 3.0505 9.33265 3.18184 9.41331L7.33117 11.4453C7.33117 13.46 7.33117 20 7.33117 20H13.3312C13.3312 20 13.3312 14 13.3312 11.3333C13.3312 9.99998 13.1138 9.52131 11.6645 9.38265Z" fill="#FF5722"/>
<path d="M10.3311 8.66669C8.67705 8.66669 7.33105 7.32002 7.33105 5.66602C7.33105 4.01069 8.67772 2.66669 10.3311 2.66669C11.9851 2.66669 13.3311 4.01069 13.3311 5.66602C13.3311 7.32002 11.9857 8.66669 10.3311 8.66669Z" fill="#FF5722"/>
<path d="M8.57189 3.72333C8.82122 3.91667 8.53989 4.66667 8.05189 4.66667C7.68656 4.66667 6.66189 4.156 6.66456 2C6.95722 3.21867 8.51522 3.68533 8.57189 3.72333Z" fill="#FF5722"/>
<path d="M12.09 3.72333C11.8407 3.91667 12.1227 4.66667 12.6107 4.66667C12.9754 4.66667 14 4.156 13.998 2C13.7054 3.21867 12.1467 3.68533 12.09 3.72333Z" fill="#FF5722"/>
<path d="M12.3613 29.3333L11.614 28.392L10.458 28.7193L12.736 21.656L14.6587 23.424L12.3613 29.3333Z" fill="#FF5722"/>
<path d="M14.6587 22.3753V23.424L13.3027 24.8473L9.99805 18.3967L12.372 17.1807L14.6587 22.3753Z" fill="#FF5722"/>
<path d="M14.4598 16.7654C14.4598 16.7654 13.7378 16.4474 14.0985 15.738C14.4291 15.088 15.1265 15.432 15.1265 15.432L17.3318 16L17.9985 14.6667L19.3298 15.966L17.9985 18H17.3318L14.4598 16.7654Z" fill="#FFB74D"/>
<path d="M24.6637 30.6667H26.6637L24.6637 22.6667H21.9971L24.6637 30.6667Z" fill="#FFB74D"/>
<path d="M19.3862 23.3333L19.9969 30.6666H21.9969V23.3333H19.3862Z" fill="#FFB74D"/>
<path d="M29.5365 16.7654C29.5365 16.7654 30.2592 16.4474 29.8978 15.738C29.5672 15.088 28.8698 15.432 28.8698 15.432L26.6638 16L25.9972 14.6667L24.6665 15.966L25.9972 18H26.6638L29.5365 16.7654Z" fill="#FFB74D"/>
<path d="M21.9972 11.3333C20.5259 11.3333 19.3306 10.1367 19.3306 8.66667C19.3306 7.196 20.5259 6 21.9972 6C23.4686 6 24.6639 7.196 24.6639 8.66667C24.6639 10.1367 23.4686 11.3333 21.9972 11.3333Z" fill="#FFB74D"/>
<path d="M25.9971 14.6667C25.3305 13.3333 25.3305 12 21.9971 12C18.6638 12 18.6638 13.3333 17.9971 14.6667L19.3305 16L17.9971 23.2927C17.9971 23.2927 17.9338 24.6667 21.9971 24.6667C26.0611 24.6667 25.9971 23.2927 25.9971 23.2927L24.6638 16L25.9971 14.6667Z" fill="#3F51B5"/>
<path d="M10.3314 2.66669C9.29402 2.66669 8.37802 3.19602 7.83936 3.99869C8.09202 3.95335 8.42802 3.96069 8.52069 3.96469C9.74736 3.89535 10.374 5.06535 10.374 5.06535C10.374 5.06535 11.0274 3.81402 12.4294 3.81402C12.5187 3.81402 12.5994 3.81335 12.6727 3.81335C12.1234 3.12069 11.2834 2.66669 10.3314 2.66669Z" fill="#37474F"/>
<path d="M21.9971 4.66669C20.2611 4.66669 17.9971 6.04869 17.9971 10.594L19.9971 12V8.66669L23.3304 6.66669L23.9971 8.00002V12L25.9971 10.594C25.9971 9.40135 25.8071 5.26069 22.9491 5.26069L22.6637 4.66669H21.9971Z" fill="#FF5722"/>
<path d="M21.9992 11.3333C21.6452 11.3333 21.3079 11.2606 20.9985 11.1346V12.37C20.9985 12.37 21.0545 13.3333 21.9972 13.3333C22.9399 13.3333 22.9985 12.37 22.9985 12.37V11.1353C22.6892 11.2606 22.3525 11.3333 21.9992 11.3333Z" fill="#FF9800"/>
</svg>
