<svg width="115" height="20" viewBox="0 0 115 20" fill="none" xmlns="http://www.w3.org/2000/svg">
<path d="M11.3061 13.4194C9.56131 14.2499 7.91179 14.6652 6.3575 14.6652C5.17655 14.6652 4.12131 14.3718 3.19179 13.7852C2.26226 13.1985 1.51559 12.3604 0.951786 11.2709C0.395595 10.1813 0.1175 9.01563 0.1175 7.77372C0.1175 6.57753 0.384166 5.43087 0.9175 4.33372C1.45083 3.22896 2.19369 2.37182 3.14607 1.7623C4.09845 1.14515 5.16131 0.836581 6.33464 0.836581C7.88893 0.836581 9.13464 1.39277 10.0718 2.50515C11.0165 3.60991 11.4889 5.32039 11.4889 7.63658V8.10515H2.46036C2.46036 9.01182 2.65083 9.83849 3.03179 10.5852C3.41274 11.3318 3.91179 11.8956 4.52893 12.2766C5.14607 12.6499 5.84702 12.8366 6.63179 12.8366C8.04131 12.8366 9.5994 12.368 11.3061 11.4309V13.4194ZM2.5975 6.47087H9.12321V6.15087C9.12321 5.0842 8.86036 4.23468 8.33464 3.6023C7.80893 2.96991 7.11179 2.65372 6.24321 2.65372C5.3594 2.65372 4.59369 2.97753 3.94607 3.62515C3.29845 4.26515 2.84893 5.21372 2.5975 6.47087ZM14.0624 14.288V1.2023H15.971V4.19658C16.5729 2.9242 17.1329 2.04801 17.651 1.56801C18.1691 1.08039 18.6948 0.836581 19.2281 0.836581C19.8605 0.836581 20.371 1.0842 20.7596 1.57944C21.1481 2.07468 21.3424 2.77944 21.3424 3.69372V4.4023C21.5938 3.6023 21.9024 2.95468 22.2681 2.45944C22.6338 1.9642 23.011 1.57182 23.3996 1.2823C23.7881 0.985153 24.2376 0.836581 24.7481 0.836581C25.3119 0.836581 25.7919 1.07658 26.1881 1.55658C26.5843 2.02896 26.7824 2.97753 26.7824 4.4023V14.288H24.8738V5.35087C24.8738 4.61182 24.851 4.10896 24.8053 3.8423C24.7596 3.56801 24.6643 3.3623 24.5196 3.22515C24.3824 3.08801 24.23 3.01944 24.0624 3.01944C23.6586 3.01944 23.2243 3.33182 22.7596 3.95658C22.2948 4.57372 21.8224 5.59849 21.3424 7.03087V14.288H19.5138V5.3623C19.5138 4.2042 19.3996 3.5261 19.171 3.32801C18.9424 3.1223 18.7405 3.01944 18.5653 3.01944C18.1615 3.01944 17.731 3.3661 17.2738 4.05944C16.8167 4.75277 16.3824 5.6442 15.971 6.73372V14.288H14.0624ZM40.5673 13.4194C38.8226 14.2499 37.173 14.6652 35.6187 14.6652C34.4378 14.6652 33.3826 14.3718 32.453 13.7852C31.5235 13.1985 30.7768 12.3604 30.213 11.2709C29.6568 10.1813 29.3787 9.01563 29.3787 7.77372C29.3787 6.57753 29.6454 5.43087 30.1787 4.33372C30.7121 3.22896 31.4549 2.37182 32.4073 1.7623C33.3597 1.14515 34.4226 0.836581 35.5959 0.836581C37.1502 0.836581 38.3959 1.39277 39.333 2.50515C40.2778 3.60991 40.7502 5.32039 40.7502 7.63658V8.10515H31.7216C31.7216 9.01182 31.9121 9.83849 32.293 10.5852C32.674 11.3318 33.173 11.8956 33.7902 12.2766C34.4073 12.6499 35.1083 12.8366 35.893 12.8366C37.3026 12.8366 38.8607 12.368 40.5673 11.4309V13.4194ZM31.8587 6.47087H38.3845V6.15087C38.3845 5.0842 38.1216 4.23468 37.5959 3.6023C37.0702 2.96991 36.373 2.65372 35.5045 2.65372C34.6207 2.65372 33.8549 2.97753 33.2073 3.62515C32.5597 4.26515 32.1102 5.21372 31.8587 6.47087ZM44.4551 13.6023V11.2823C45.3313 11.8537 46.257 12.2575 47.2322 12.4937C48.2075 12.7223 49.0379 12.8366 49.7237 12.8366C50.8208 12.8366 51.6094 12.6613 52.0894 12.3109C52.577 11.9528 52.8208 11.5071 52.8208 10.9737C52.8208 10.6232 52.7103 10.3223 52.4894 10.0709C52.2608 9.81944 51.697 9.51087 50.7979 9.14515L50.0437 8.83658L48.5351 8.2423C46.9122 7.60991 45.8875 7.02325 45.4608 6.4823C45.0341 5.94896 44.8208 5.30134 44.8208 4.53944C44.8208 3.45753 45.236 2.56991 46.0665 1.87658C46.897 1.18325 48.2494 0.836581 50.1237 0.836581C51.5179 0.836581 52.8399 1.03849 54.0894 1.4423V3.41944C52.6494 2.90896 51.297 2.65372 50.0322 2.65372C49.1103 2.65372 48.3903 2.81753 47.8722 3.14515C47.3541 3.46515 47.0951 3.86515 47.0951 4.34515C47.0951 4.81753 47.3199 5.19468 47.7694 5.47658C48.2189 5.75849 48.9465 6.0823 49.9522 6.44801L51.4265 6.98515C52.7827 7.48039 53.7351 8.01753 54.2837 8.59658C54.8246 9.17563 55.0951 9.89563 55.0951 10.7566C55.0951 11.8918 54.6608 12.8252 53.7922 13.5566C52.9237 14.288 51.5294 14.6537 49.6094 14.6537C47.9408 14.6537 46.2227 14.3032 44.4551 13.6023ZM64.32 14.8366C63.7943 14.8366 63.3409 14.6499 62.96 14.2766C62.5867 13.9032 62.4 13.4537 62.4 12.928C62.4 12.3947 62.5905 11.9452 62.9714 11.5794C63.3524 11.2061 63.8019 11.0194 64.32 11.0194C64.8305 11.0194 65.2762 11.2061 65.6571 11.5794C66.0381 11.9452 66.2286 12.3947 66.2286 12.928C66.2286 13.4537 66.0381 13.9032 65.6571 14.2766C65.2838 14.6499 64.8381 14.8366 64.32 14.8366ZM73.7163 13.6023V11.2823C74.5925 11.8537 75.5182 12.2575 76.4935 12.4937C77.4687 12.7223 78.2992 12.8366 78.9849 12.8366C80.0821 12.8366 80.8706 12.6613 81.3506 12.3109C81.8382 11.9528 82.0821 11.5071 82.0821 10.9737C82.0821 10.6232 81.9716 10.3223 81.7506 10.0709C81.5221 9.81944 80.9582 9.51087 80.0592 9.14515L79.3049 8.83658L77.7963 8.2423C76.1735 7.60991 75.1487 7.02325 74.7221 6.4823C74.2954 5.94896 74.0821 5.30134 74.0821 4.53944C74.0821 3.45753 74.4973 2.56991 75.3278 1.87658C76.1582 1.18325 77.5106 0.836581 79.3849 0.836581C80.7792 0.836581 82.1011 1.03849 83.3506 1.4423V3.41944C81.9106 2.90896 80.5582 2.65372 79.2935 2.65372C78.3716 2.65372 77.6516 2.81753 77.1335 3.14515C76.6154 3.46515 76.3563 3.86515 76.3563 4.34515C76.3563 4.81753 76.5811 5.19468 77.0306 5.47658C77.4801 5.75849 78.2078 6.0823 79.2135 6.44801L80.6878 6.98515C82.044 7.48039 82.9963 8.01753 83.5449 8.59658C84.0859 9.17563 84.3563 9.89563 84.3563 10.7566C84.3563 11.8918 83.9221 12.8252 83.0535 13.5566C82.1849 14.288 80.7906 14.6537 78.8706 14.6537C77.2021 14.6537 75.484 14.3032 73.7163 13.6023ZM88.1984 14.288V1.2023H90.3813V4.05944C91.006 3.05372 91.7565 2.26515 92.6327 1.69372C93.5165 1.1223 94.4003 0.836581 95.2841 0.836581C96.0613 0.836581 96.766 1.0423 97.3984 1.45372C98.0308 1.86515 98.4727 2.4023 98.7241 3.06515C98.9832 3.72801 99.1127 5.03087 99.1127 6.97372V14.288H96.9298V6.71087C96.9298 5.44611 96.8689 4.61563 96.747 4.21944C96.6251 3.81563 96.4003 3.4842 96.0727 3.22515C95.7527 2.96611 95.4022 2.83658 95.0213 2.83658C94.2517 2.83658 93.4289 3.2023 92.5527 3.93372C91.6765 4.65753 90.9527 5.5642 90.3813 6.65372V14.288H88.1984ZM104.84 4.13944C105.511 3.0423 106.311 2.21944 107.24 1.67087C108.178 1.11468 109.035 0.836581 109.812 0.836581C110.909 0.836581 111.892 1.30896 112.76 2.25372C113.637 3.19849 114.075 4.63087 114.075 6.55087C114.075 8.06706 113.785 9.42325 113.206 10.6194C112.627 11.808 111.85 12.749 110.875 13.4423C109.907 14.128 108.711 14.4709 107.286 14.4709C106.875 14.4709 106.25 14.429 105.412 14.3452C105.282 14.3299 105.092 14.3109 104.84 14.288V19.3737H102.669V1.2023H104.84V4.13944ZM104.84 6.73372V12.3452C105.633 12.5432 106.36 12.6423 107.023 12.6423C108.341 12.6423 109.45 12.128 110.349 11.0994C111.256 10.0632 111.709 8.6461 111.709 6.84801C111.709 5.54515 111.461 4.56611 110.966 3.91087C110.479 3.24801 109.922 2.91658 109.298 2.91658C108.619 2.91658 107.869 3.26325 107.046 3.95658C106.231 4.6423 105.496 5.56801 104.84 6.73372Z" fill="#6688CC"/>
</svg>
