<svg width="32" height="32" viewBox="0 0 32 32" fill="none" xmlns="http://www.w3.org/2000/svg">
<path d="M16.0674 20.35C15.2392 20.3494 14.4199 20.1793 13.6599 19.85C12.179 19.2265 10.999 18.051 10.3699 16.5725C10.0478 15.8103 9.88184 14.9912 9.88184 14.1637C9.88184 13.3362 10.0478 12.5172 10.3699 11.755C10.9966 10.2719 12.1769 9.09163 13.6599 8.46497C14.4221 8.14284 15.2412 7.97687 16.0687 7.97687C16.8962 7.97687 17.7152 8.14284 18.4774 8.46497C19.9597 9.09022 21.1399 10.2686 21.7674 11.75C22.0896 12.5122 22.2556 13.3312 22.2556 14.1587C22.2556 14.9862 22.0896 15.8053 21.7674 16.5675C21.1419 18.0524 19.9615 19.2346 18.4774 19.8625C17.7158 20.1877 16.8956 20.3537 16.0674 20.35Z" fill="white"/>
<path d="M16.0674 8.72502C16.7935 8.72125 17.5125 8.86676 18.1799 9.15252C19.4868 9.70332 20.5266 10.7431 21.0774 12.05C21.3593 12.7186 21.5046 13.4369 21.5046 14.1625C21.5046 14.8881 21.3593 15.6064 21.0774 16.275C20.5272 17.5814 19.4884 18.6212 18.1824 19.1725C17.5138 19.4544 16.7956 19.5997 16.0699 19.5997C15.3443 19.5997 14.6261 19.4544 13.9574 19.1725C12.6506 18.6217 11.6107 17.5819 11.0599 16.275C10.778 15.6064 10.6328 14.8881 10.6328 14.1625C10.6328 13.4369 10.778 12.7186 11.0599 12.05C11.6102 10.7436 12.649 9.70386 13.9549 9.15252C14.6224 8.86669 15.3414 8.72118 16.0674 8.72502ZM16.0674 7.22502C15.1377 7.22177 14.2171 7.40895 13.3624 7.77502C11.7032 8.47751 10.3824 9.79823 9.67994 11.4575C9.31758 12.3133 9.13086 13.2332 9.13086 14.1625C9.13086 15.0919 9.31758 16.0117 9.67994 16.8675C10.383 18.5273 11.7047 19.8481 13.3649 20.55C14.2207 20.9124 15.1406 21.0991 16.0699 21.0991C16.9993 21.0991 17.9192 20.9124 18.7749 20.55C20.4342 19.8475 21.755 18.5268 22.4574 16.8675C22.8198 16.0117 23.0065 15.0919 23.0065 14.1625C23.0065 13.2332 22.8198 12.3133 22.4574 11.4575C21.755 9.79823 20.4342 8.47751 18.7749 7.77502C17.9203 7.40902 16.9997 7.22184 16.0699 7.22502H16.0674Z" fill="#F8DC25"/>
<path d="M10.6324 14.1625C10.6285 13.4364 10.774 12.7174 11.0599 12.05C11.6101 10.7436 12.649 9.70382 13.9549 9.15248C14.6235 8.87057 15.3418 8.72534 16.0674 8.72534C16.793 8.72534 17.5113 8.87057 18.1799 9.15248C19.4868 9.70328 20.5266 10.7431 21.0774 12.05C21.3593 12.7186 21.5045 13.4369 21.5045 14.1625C21.5045 14.8881 21.3593 15.6064 21.0774 16.275C20.5272 17.5814 19.4883 18.6211 18.1824 19.1725C17.5138 19.4544 16.7955 19.5996 16.0699 19.5996C15.3443 19.5996 14.626 19.4544 13.9574 19.1725C12.6505 18.6217 11.6107 17.5819 11.0599 16.275C10.7739 15.6076 10.6284 14.8885 10.6324 14.1625V14.1625Z" stroke="#393C54" stroke-width="3" stroke-linecap="round" stroke-linejoin="round"/>
<path d="M4.2499 23.785C4.06903 23.7871 3.89351 23.7237 3.75569 23.6065C3.61787 23.4894 3.52702 23.3264 3.4999 23.1475L1.9599 12.8975C1.93052 12.7009 1.98037 12.5007 2.09849 12.3409C2.21662 12.1811 2.39337 12.0746 2.5899 12.045L5.9999 11.5325C6.03735 11.5298 6.07495 11.5298 6.1124 11.5325C6.29328 11.5305 6.4688 11.5939 6.60662 11.711C6.74444 11.8282 6.83528 11.9912 6.8624 12.17L7.8624 18.74L10.4424 18.3525C10.4799 18.3498 10.5175 18.3498 10.5549 18.3525C10.7358 18.3505 10.9113 18.4139 11.0491 18.531C11.1869 18.6482 11.2778 18.8112 11.3049 18.99L11.7474 21.925C11.7768 22.1216 11.7269 22.3218 11.6088 22.4816C11.4907 22.6415 11.3139 22.7479 11.1174 22.7775L4.3849 23.7775C4.34021 23.784 4.29504 23.7865 4.2499 23.785Z" fill="white"/>
<path d="M6.12999 12.275L7.22999 19.585L10.55 19.085L11 22.0225L4.24999 23.035L2.70999 12.785L6.12999 12.275ZM5.61249 21.575L9.45249 21L9.39749 20.6325L5.95749 21.145L4.83999 13.725L4.43999 13.785L5.61249 21.575ZM6.12999 10.775C6.05549 10.7753 5.98112 10.7812 5.90749 10.7925L2.49999 11.305C2.10825 11.3666 1.75682 11.5808 1.52258 11.9008C1.28833 12.2208 1.19033 12.6205 1.24999 13.0125L2.78999 23.2625C2.85157 23.6543 3.06577 24.0057 3.38575 24.2399C3.70573 24.4742 4.10545 24.5722 4.49749 24.5125L11.23 23.5125C11.6217 23.4509 11.9732 23.2367 12.2074 22.9168C12.4417 22.5968 12.5397 22.1971 12.48 21.805L12.035 18.8625C11.9734 18.4708 11.7592 18.1194 11.4392 17.8851C11.1193 17.6509 10.7195 17.5529 10.3275 17.6125L8.49999 17.88L7.61499 12.0525C7.56172 11.6974 7.38281 11.3731 7.11077 11.1387C6.83873 10.9043 6.49161 10.7752 6.13249 10.775H6.12999Z" fill="#F8DC25"/>
<path d="M2.72021 12.7875L6.13021 12.275L7.23022 19.585L10.5502 19.085L11.0002 22.0225L4.25021 23.035L2.72021 12.7875Z" stroke="#393C54" stroke-width="3" stroke-linecap="round" stroke-linejoin="round"/>
<path d="M28.5352 24.025C28.4719 24.0246 28.4089 24.0162 28.3477 24L21.7502 22.2925C21.6548 22.2677 21.5652 22.2244 21.4865 22.165C21.4079 22.1057 21.3417 22.0314 21.2918 21.9464C21.2419 21.8614 21.2092 21.7674 21.1956 21.6698C21.1821 21.5722 21.1878 21.4729 21.2127 21.3775L23.8127 11.3475C23.8374 11.2521 23.8807 11.1625 23.9401 11.0838C23.9995 11.0052 24.0738 10.939 24.1588 10.8891C24.2438 10.8392 24.3377 10.8065 24.4354 10.7929C24.533 10.7793 24.6323 10.7851 24.7277 10.81L28.0652 11.675C28.1606 11.6997 28.2502 11.743 28.3288 11.8024C28.4075 11.8618 28.4737 11.9361 28.5236 12.0211C28.5735 12.1061 28.6062 12.2 28.6198 12.2977C28.6333 12.3953 28.6275 12.4946 28.6027 12.59L26.9352 19.02L29.4602 19.675C29.5558 19.6994 29.6457 19.7426 29.7246 19.8018C29.8035 19.8611 29.87 19.9354 29.9201 20.0204C29.9703 20.1054 30.0032 20.1995 30.0169 20.2972C30.0307 20.3949 30.025 20.4944 30.0002 20.59L29.2502 23.4625C29.2087 23.6233 29.115 23.7657 28.9838 23.8675C28.8525 23.9693 28.6913 24.0247 28.5252 24.025H28.5352Z" fill="white"/>
<path d="M24.5475 11.535L27.885 12.4L26.03 19.5575L29.28 20.4L28.53 23.2725L21.945 21.565L24.545 11.535H24.5475ZM27.52 21.7275L27.6125 21.3675L24.25 20.5L26.1325 13.2375L25.75 13.1275L23.75 20.75L27.5 21.725L27.52 21.7275ZM24.5475 10.035C24.2152 10.0348 23.8923 10.1449 23.6295 10.3481C23.3666 10.5512 23.1786 10.8359 23.095 11.1575L20.5 21.19C20.4004 21.5749 20.4577 21.9835 20.6593 22.3262C20.8608 22.6689 21.1902 22.9175 21.575 23.0175L28.165 24.725C28.5499 24.8246 28.9585 24.7673 29.3012 24.5657C29.6439 24.3641 29.8925 24.0348 29.9925 23.65L30.7425 20.7775C30.842 20.3926 30.7848 19.9839 30.5832 19.6412C30.3816 19.2986 30.0522 19.0499 29.6675 18.95L27.8675 18.4825L29.3475 12.7775C29.3964 12.5854 29.4068 12.3855 29.378 12.1894C29.3493 11.9933 29.2819 11.8048 29.1798 11.6348C29.0778 11.4649 28.9431 11.3169 28.7835 11.1993C28.6238 11.0818 28.4425 10.997 28.25 10.95L24.9225 10.085C24.7992 10.0532 24.6723 10.0372 24.545 10.0375L24.5475 10.035Z" fill="#F8DC25"/>
<path d="M24.5478 11.535L27.8853 12.4L26.0303 19.5575L29.2803 20.4L28.5303 23.2725L21.9453 21.565L24.5478 11.535Z" stroke="#393C54" stroke-width="3" stroke-linecap="round" stroke-linejoin="round"/>
<path d="M9.45238 20.9975L9.39738 20.6275L5.95738 21.145L4.83988 13.725L4.44238 13.785L5.61238 21.575L9.45238 20.9975Z" stroke="#F85565" stroke-width="2" stroke-linejoin="round"/>
<path d="M27.5198 21.7275L27.6148 21.3675L24.2448 20.4925L26.1298 13.23L25.7373 13.13L23.7598 20.7525L27.5198 21.7275Z" stroke="#F85565" stroke-width="2" stroke-linejoin="round"/>
<path d="M16.0677 18.14C16.5986 18.1438 17.1245 18.0382 17.6127 17.83C18.5675 17.4249 19.3277 16.6648 19.7327 15.71C19.938 15.2203 20.0437 14.6947 20.0437 14.1637C20.0437 13.6328 19.938 13.1071 19.7327 12.6175C19.3277 11.6641 18.5686 10.905 17.6152 10.5C17.1256 10.2947 16.5999 10.189 16.069 10.189C15.538 10.189 15.0124 10.2947 14.5227 10.5C13.568 10.9051 12.8078 11.6652 12.4027 12.62C12.1975 13.1096 12.0918 13.6353 12.0918 14.1662C12.0918 14.6972 12.1975 15.2228 12.4027 15.7125C12.8078 16.6673 13.568 17.4274 14.5227 17.8325C15.011 18.0407 15.5369 18.1463 16.0677 18.1425" fill="#F8DC25"/>
<path d="M19.7647 13.7875C19.2723 14.9449 18.3501 15.8662 17.1922 16.3575C16.5984 16.6064 15.961 16.7346 15.3172 16.7346C14.6734 16.7346 14.036 16.6064 13.4422 16.3575C13.0824 16.2018 12.7425 16.0037 12.4297 15.7675C12.8392 16.6963 13.5876 17.4339 14.5222 17.83C15.0119 18.0353 15.5375 18.141 16.0684 18.141C16.5994 18.141 17.125 18.0353 17.6147 17.83C18.5695 17.4249 19.3296 16.6648 19.7347 15.71C19.9428 15.2217 20.0483 14.6958 20.0447 14.165C20.0446 13.8664 20.011 13.5687 19.9447 13.2775C19.8948 13.4509 19.8347 13.6212 19.7647 13.7875Z" fill="#F2BC0F"/>
<path d="M17.9051 14.96C17.938 14.9619 17.9701 14.9703 17.9997 14.9847C18.0293 14.999 18.0558 15.0191 18.0776 15.0437C18.0995 15.0683 18.1162 15.097 18.127 15.1281C18.1377 15.1593 18.1422 15.1922 18.1401 15.225C18.0832 15.7489 17.8348 16.2332 17.4426 16.5852C17.0504 16.9371 16.5421 17.1317 16.0151 17.1317C15.4882 17.1317 14.9798 16.9371 14.5876 16.5852C14.1954 16.2332 13.947 15.7489 13.8901 15.225C13.8881 15.1922 13.8926 15.1593 13.9033 15.1281C13.914 15.097 13.9308 15.0683 13.9526 15.0437C13.9744 15.0191 14.0009 14.999 14.0305 14.9847C14.0601 14.9703 14.0923 14.9619 14.1251 14.96H17.9051Z" fill="#393C54"/>
<path d="M16.0153 17.1225C16.3116 17.1224 16.6046 17.0603 16.8754 16.9402C17.1462 16.82 17.3889 16.6445 17.5878 16.425C17.1676 16.015 16.6037 15.7855 16.0166 15.7855C15.4294 15.7855 14.8656 16.015 14.4453 16.425C14.6439 16.6442 14.8862 16.8196 15.1566 16.9397C15.427 17.0598 15.7195 17.1221 16.0153 17.1225Z" fill="#F85565"/>
<path d="M18.1001 13.46C18.4754 13.4587 18.8485 13.5178 19.2051 13.635C19.0986 13.4347 18.9396 13.2672 18.7452 13.1503C18.5507 13.0335 18.3282 12.9717 18.1013 12.9717C17.8745 12.9717 17.6519 13.0335 17.4575 13.1503C17.263 13.2672 17.104 13.4347 16.9976 13.635C17.3533 13.5181 17.7256 13.459 18.1001 13.46Z" fill="#393C54"/>
<path d="M14.1001 13.46C14.4754 13.4587 14.8485 13.5178 15.2051 13.635C15.0986 13.4347 14.9396 13.2672 14.7452 13.1503C14.5507 13.0335 14.3282 12.9717 14.1013 12.9717C13.8745 12.9717 13.6519 13.0335 13.4575 13.1503C13.263 13.2672 13.104 13.4347 12.9976 13.635C13.3533 13.5181 13.7256 13.459 14.1001 13.46Z" fill="#393C54"/>
<path d="M19.6001 14.71C19.6001 14.8426 19.5474 14.9698 19.4537 15.0636C19.3599 15.1573 19.2327 15.21 19.1001 15.21C18.9675 15.21 18.8403 15.1573 18.7465 15.0636C18.6528 14.9698 18.6001 14.8426 18.6001 14.71C18.6001 14.435 18.8251 13.71 19.1001 13.71C19.3751 13.71 19.6001 14.4325 19.6001 14.71Z" fill="#00ADFE"/>
<path d="M13.6001 14.71C13.6001 14.8426 13.5474 14.9698 13.4537 15.0636C13.3599 15.1573 13.2327 15.21 13.1001 15.21C12.9675 15.21 12.8403 15.1573 12.7465 15.0636C12.6528 14.9698 12.6001 14.8426 12.6001 14.71C12.6001 14.435 12.8251 13.71 13.1001 13.71C13.3751 13.71 13.6001 14.4325 13.6001 14.71Z" fill="#00ADFE"/>
</svg>
