<svg width="49" height="54" viewBox="0 0 49 54" fill="none" xmlns="http://www.w3.org/2000/svg">
<path d="M7.13658 0.013256C6.68815 0.0797294 5.77489 0.345623 5.23349 0.567199C4.41866 0.899572 3.00775 1.68064 3.00775 1.80805C3.00775 1.83575 3.14447 1.99085 3.314 2.15149C3.48353 2.31214 3.5929 2.45063 3.56009 2.46171C3.43431 2.50602 3.51087 2.62789 3.88821 2.99904C4.35851 3.46989 4.65382 3.91859 5.10771 4.84369C5.82958 6.29503 6.34363 7.66329 7.35533 10.8153L8.05531 12.9812L7.10924 16.6594C3.44525 30.9679 1.42732 38.8617 1.21404 39.7535C0.44296 42.9332 0 45.5977 0 47.0158C0 47.8357 0.109373 48.301 0.399211 48.6832C0.497647 48.8161 0.650769 49.0543 0.738267 49.215C0.913264 49.5363 1.12654 49.7523 1.49294 49.9684C2.31324 50.4614 3.89914 50.4891 5.87879 50.0514C6.57878 49.8963 8.16469 49.4476 8.23031 49.3867C8.26312 49.3535 8.16469 49.2261 7.95688 49.0322C7.65063 48.7552 7.6397 48.7275 7.75454 48.6943C7.935 48.6444 7.90219 48.5392 7.65063 48.3674C7.27877 48.1016 6.85768 47.5975 6.7319 47.2651C6.5405 46.7499 6.49128 46.063 6.55691 45.0271C6.69362 42.9886 6.81393 42.3239 9.0178 31.1396L10.8662 21.7779L11.0685 22.4426C11.5006 23.8663 12.217 26.0267 12.5287 26.8687C14.2786 31.5828 16.663 35.7263 18.8723 37.8978C20.0316 39.0334 20.9777 39.6151 22.1261 39.8976C22.6183 40.0194 23.6738 40.0194 24.2152 39.8976C25.4948 39.6151 26.7745 38.9392 28.1635 37.8147C28.9401 37.1832 30.5588 35.5325 31.3846 34.5298C34.9173 30.2256 37.9579 24.8357 40.3641 18.5927C40.5719 18.0609 40.7414 17.6898 40.7414 17.7673C40.7414 17.8504 40.2602 22.5368 39.675 28.1816C38.1985 42.3626 38.2532 41.7145 38.2532 44.9607C38.2532 46.9327 38.2696 47.4257 38.3516 48.0074C38.5485 49.4033 38.893 50.4891 39.3688 51.2369C39.511 51.4585 39.6914 51.7521 39.7735 51.8961C39.9539 52.2119 40.3695 52.6495 40.6594 52.8378C41.9773 53.6743 44.0554 53.2256 46.6366 51.5416C46.91 51.3588 47.1397 51.176 47.1397 51.1427C47.1397 51.104 47.0139 50.9655 46.8608 50.8325C46.6093 50.6165 46.5929 50.5888 46.6694 50.5057C46.7952 50.3617 46.7788 50.3007 46.571 50.1733C46.3304 50.0182 45.9366 49.5861 45.7616 49.2815C45.4608 48.7552 45.1601 47.531 44.996 46.207C44.903 45.4149 44.903 42.1743 44.996 41.083C45.1109 39.8034 47.1835 20.0163 47.3366 18.7589C47.4132 18.1329 47.6319 16.4877 47.8233 15.1028C48.1897 12.4882 48.4631 10.3389 48.5616 9.34729C48.6873 8.05659 48.5944 7.0761 48.2936 6.46122C47.9491 5.76324 47.6155 5.20375 47.4296 5.00987C46.6475 4.20111 45.2421 4.07924 43.0109 4.63319C42.3273 4.80491 40.6539 5.31454 40.5992 5.36994C40.5828 5.38656 40.5336 5.66907 40.4953 6.00144C40.0141 9.95109 38.2696 14.5156 35.0923 20.1659C33.1291 23.6613 30.8869 27.057 29.1479 29.1731C28.8362 29.5553 28.2182 30.2256 27.7807 30.6688C26.6159 31.8487 25.7573 32.4691 24.8331 32.7904C24.423 32.9344 24.3136 32.9511 23.8761 32.9289C23.4222 32.9067 23.3402 32.8846 22.9683 32.6907C22.673 32.5301 22.416 32.3251 22.066 31.9706C20.8355 30.7297 19.791 28.8297 18.3473 25.1847C17.7676 23.7167 17.5598 23.1462 16.6028 20.4207C16.045 18.8198 15.8919 18.3323 14.4372 13.441C12.6654 7.50818 11.6154 4.39499 10.8881 2.91594C10.0514 1.2264 9.49904 0.533965 8.69515 0.151739C8.44359 0.0354118 8.30687 0.00771405 7.84751 0.00217206C7.54673 -0.00336383 7.22955 0.00217206 7.13658 0.013256Z" fill="#6688CC"/>
</svg>
