<svg width="46" height="46" viewBox="0 0 46 46" fill="none" xmlns="http://www.w3.org/2000/svg">
<path d="M9.51614 29.1063C9.51614 31.7251 7.37685 33.8644 4.75807 33.8644C2.13929 33.8644 0 31.7251 0 29.1063C0 26.4876 2.13929 24.3483 4.75807 24.3483H9.51614V29.1063Z" fill="#E01E5A"/>
<path d="M11.9136 29.1063C11.9136 26.4876 14.0529 24.3483 16.6716 24.3483C19.2904 24.3483 21.4297 26.4876 21.4297 29.1063V41.0199C21.4297 43.6387 19.2904 45.778 16.6716 45.778C14.0529 45.778 11.9136 43.6387 11.9136 41.0199V29.1063Z" fill="#E01E5A"/>
<path d="M16.6716 10.0003C14.0529 10.0003 11.9136 7.86099 11.9136 5.24221C11.9136 2.62343 14.0529 0.484138 16.6716 0.484138C19.2904 0.484138 21.4297 2.62343 21.4297 5.24221V10.0003H16.6716Z" fill="#36C5F0"/>
<path d="M16.6717 12.3978C19.2905 12.3978 21.4298 14.537 21.4298 17.1558C21.4298 19.7746 19.2905 21.9139 16.6717 21.9139H4.75807C2.13929 21.9139 0 19.7746 0 17.1558C0 14.537 2.13929 12.3978 4.75807 12.3978H16.6717Z" fill="#36C5F0"/>
<path d="M35.7778 17.1558C35.7778 14.537 37.9171 12.3978 40.5359 12.3978C43.1547 12.3978 45.294 14.537 45.294 17.1558C45.294 19.7746 43.1547 21.9139 40.5359 21.9139H35.7778V17.1558Z" fill="#2EB67D"/>
<path d="M33.3803 17.1558C33.3803 19.7746 31.241 21.9139 28.6222 21.9139C26.0034 21.9139 23.8641 19.7746 23.8641 17.1558V5.24221C23.8641 2.62343 26.0034 0.484138 28.6222 0.484138C31.241 0.484138 33.3803 2.62343 33.3803 5.24221V17.1558Z" fill="#2EB67D"/>
<path d="M28.6222 36.2619C31.241 36.2619 33.3803 38.4012 33.3803 41.02C33.3803 43.6387 31.241 45.778 28.6222 45.778C26.0034 45.778 23.8641 43.6387 23.8641 41.02V36.2619H28.6222Z" fill="#ECB22E"/>
<path d="M28.6222 33.8644C26.0034 33.8644 23.8641 31.7251 23.8641 29.1063C23.8641 26.4876 26.0034 24.3483 28.6222 24.3483H40.5358C43.1546 24.3483 45.2939 26.4876 45.2939 29.1063C45.2939 31.7251 43.1546 33.8644 40.5358 33.8644H28.6222Z" fill="#ECB22E"/>
</svg>
